<?xml version="1.0" encoding="utf-8"?>
<!-- Generator: Adobe Illustrator 15.1.0, SVG Export Plug-In . SVG Version: 6.00 Build 0)  -->
<!DOCTYPE svg PUBLIC "-//W3C//DTD SVG 1.1//EN" "http://www.w3.org/Graphics/SVG/1.1/DTD/svg11.dtd">
<svg version="1.1" id="Layer_1" xmlns="http://www.w3.org/2000/svg" xmlns:xlink="http://www.w3.org/1999/xlink" x="0px" y="0px"
	 width="800px" height="200px" viewBox="0 0 800 200" enable-background="new 0 0 800 200" xml:space="preserve">
<path fill="#FFFFFF" d="M433.004,130c-5.234,0-10.118,1.622-14.14,4.384l-32.48-25.538c1.036-2.754,1.622-5.712,1.622-8.848
	c0-3.204-0.626-6.27-1.718-9.082l31.992-25.694c4.118,3,9.216,4.778,14.724,4.778c13.809,0,25-11.192,25-25s-11.191-25-25-25
	c-13.828,0-25,11.192-25,25c0,2.852,0.468,5.586,1.348,8.134l-32.479,26.084c-3.946-2.656-8.73-4.218-13.868-4.218
	C349.182,75,338,86.192,338,100c0,13.809,11.182,25,25.004,25c5.214,0,10.098-1.602,14.122-4.355l32.48,25.527
	c-1.036,2.754-1.603,5.732-1.603,8.828c0,13.809,11.172,25,25,25c13.809,0,25-11.191,25-25S446.813,130,433.004,130z"/>
</svg>
